# xmcd
#
# Track frame offsets:
#	150
#	18292
#	33777
#	48620
#	63970
#	79937
#	93885
#	106740
#	123225
#	134320
#	150320
#	163235
#	177710
#	187907
#	204715
#	217862
#	230005
#	248730
#
# Disc length: 3497 seconds
#
# Revision: 2
# Processed by: cddbd v1.5.2PL0 Copyright (c) Steve Scherf et al.
# Submitted via: EZCDAudioConverter 2.1.7.1
#
DISCID=e80da712
DTITLE=V/A - Acid Drops, Spacedust and Flying Saucers 1/4
DYEAR=2001
DGENRE=
TTITLE0=McGough And McGear - So Much In Love
TTITLE1=Aquarian Age - 10,000 Words In A Cardboard Box
TTITLE2=The Nice - Flower King Of Flies
TTITLE3=Rupert's People - Dream On My Mind
TTITLE4=Shy Limbs - Reputation
TTITLE5=Tintern Abbey - Vacuum Cleaner
TTITLE6=The David - Light Of Your Mind
TTITLE7=The Misunderstood - I Can Take You To The Sun
TTITLE8=Grapefruit - Dear Delilah
TTITLE9=Procol Harum - Shine On Brightly
TTITLE10=Bamboo Shoot - The Fox Has Gone To Ground
TTITLE11=The Who - Armenia City In The Sky
TTITLE12=Focus Three - 10,000 Years Behind My Mind
TTITLE13=Timebox - Gone Is The Sad Man
TTITLE14=World Of Oz - Peter's Birthday
TTITLE15=The Tickle - Subway (Smokey Pokey World)
TTITLE16=Felius Andromeda - Meditations
TTITLE17=Warm Sounds - Nite Is A-Comin'
EXTD=
EXTT0=
EXTT1=
EXTT2=
EXTT3=
EXTT4=
EXTT5=
EXTT6=
EXTT7=
EXTT8=
EXTT9=
EXTT10=
EXTT11=
EXTT12=
EXTT13=
EXTT14=
EXTT15=
EXTT16=
EXTT17=
PLAYORDER=
